Coordinates
version=1
nRows=65
nColumns=12
inDegrees=yes

Units are S.I. units (second, meters, Newtons, ...)
Angles are in degrees

endheader
time	SC_y	SC_z	SC_x	AC_y	AC_z	AC_x	GH_y	GH_z	GH_yy	EL_x	PS_y
       0.0              -51.91          31.56           36.8          46.49         -1.709          17.41          147.5          88.89          -36.8          8.461          147.2
   0.04775              -51.91          31.57           36.8          46.49          -1.71          17.41          147.5          88.89         -36.81          8.472          147.2
   0.09549               -51.9          31.57           36.8          46.49         -1.712          17.41          147.5          88.88         -36.82          8.483          147.2
    0.1432               -51.9          31.57          36.81           46.5         -1.713          17.41          147.5          88.87         -36.83          8.495          147.2
     0.191              -51.89          31.57          36.81           46.5         -1.714          17.41          147.5          88.86         -36.84          8.507          147.2
    0.2387              -51.89          31.57          36.81           46.5         -1.716           17.4          147.5          88.85         -36.85          8.521          147.2
    0.2865              -51.89          31.57          36.81           46.5         -1.717           17.4          147.5          88.84         -36.86          8.535          147.1
    0.3342              -51.88          31.57          36.81          46.51         -1.719           17.4          147.5          88.82         -36.87           8.55          147.1
     0.382              -51.88          31.58          36.82          46.51         -1.721           17.4          147.5          88.81         -36.89          8.567          147.1
    0.4297              -51.87          31.58          36.82          46.51         -1.722           17.4          147.5           88.8          -36.9          8.585          147.1
    0.4775              -51.87          31.58          36.82          46.51         -1.724           17.4          147.6          88.78         -36.92          8.603          147.1
    0.5252              -51.86          31.58          36.83          46.52         -1.727           17.4          147.6          88.77         -36.94          8.624          147.0
     0.573              -51.85          31.58          36.83          46.52         -1.729          17.39          147.6          88.75         -36.95          8.646          147.0
    0.6207              -51.85          31.59          36.83          46.53         -1.731          17.39          147.6          88.73         -36.97           8.67          147.0
    0.6684              -51.84          31.59          36.84          46.53         -1.734          17.39          147.6          88.71          -37.0          8.695          146.9
    0.7162              -51.83          31.59          36.84          46.53         -1.737          17.39          147.6          88.69         -37.02          8.723          146.9
    0.7639              -51.82          31.59          36.85          46.54          -1.74          17.39          147.6          88.67         -37.04          8.753          146.9
    0.8117              -51.81           31.6          36.85          46.54         -1.744          17.38          147.6          88.64         -37.07          8.786          146.8
    0.8594               -51.8           31.6          36.86          46.55         -1.747          17.38          147.6          88.61          -37.1          8.822          146.8
    0.9072              -51.79          31.61          36.87          46.56         -1.752          17.38          147.6          88.58         -37.13          8.862          146.7
    0.9549              -51.78          31.61          36.87          46.56         -1.756          17.37          147.7          88.55         -37.17          8.905          146.7
     1.003              -51.76          31.61          36.88          46.57         -1.761          17.37          147.7          88.51         -37.21          8.953          146.6
      1.05              -51.75          31.62          36.89          46.58         -1.767          17.37          147.7          88.47         -37.26          9.005          146.5
     1.098              -51.73          31.63           36.9          46.59         -1.773          17.36          147.7          88.43          -37.3          9.064          146.5
     1.146              -51.71          31.63          36.91           46.6          -1.78          17.36          147.7          88.37         -37.36          9.128          146.4
     1.194              -51.69          31.64          36.92          46.61         -1.787          17.35          147.8          88.32         -37.42          9.201          146.3
     1.241              -51.66          31.65          36.94          46.62         -1.796          17.34          147.8          88.26         -37.49          9.282          146.2
     1.289              -51.64          31.66          36.95          46.64         -1.806          17.34          147.8          88.18         -37.56          9.373          146.1
     1.337              -51.61          31.67          36.97          46.66         -1.816          17.33          147.8           88.1         -37.65          9.476          146.0
     1.385              -51.57          31.68          36.99          46.67         -1.829          17.32          147.9          88.01         -37.75          9.593          145.8
     1.432              -51.53          31.69          37.01           46.7         -1.843          17.31          147.9          87.91         -37.86          9.726          145.6
      1.48              -51.49          31.71          37.04          46.72         -1.859           17.3          148.0          87.79         -37.99          9.879          145.4
     1.528              -51.43          31.73          37.06          46.75         -1.878          17.28          148.0          87.65         -38.14          10.06          145.2
     1.576              -51.37          31.75           37.1          46.78         -1.899          17.27          148.1          87.49         -38.31          10.26          144.9
     1.623               -51.3          31.77          37.14          46.82         -1.925          17.25          148.2           87.3         -38.51           10.5          144.6
     1.671              -51.22           31.8          37.19          46.87         -1.954          17.22          148.3          87.08         -38.75          10.79          144.3
     1.719              -51.12          31.83          37.24          46.92          -1.99           17.2          148.4          86.82         -39.03          11.12          143.9
     1.767               -51.0          31.87          37.31          46.99         -2.033          17.17          148.5          86.51         -39.37          11.53          143.3
     1.814              -50.85          31.92          37.39          47.07         -2.084          17.13          148.7          86.13         -39.78          12.01          142.7
     1.862              -50.67          31.98          37.49          47.16         -2.147          17.08          148.9          85.66         -40.28          12.61          142.0
      1.91              -50.45          32.06          37.61          47.28         -2.225          17.02          149.1          85.09          -40.9          13.35          141.0
     1.958              -50.18          32.15          37.76          47.43         -2.321          16.95          149.4          84.37         -41.67          14.26          139.8
     2.005              -49.84          32.26          37.96          47.62         -2.443          16.86          149.8          83.47         -42.64          15.42          138.4
     2.053               -49.4          32.41           38.2          47.86         -2.599          16.74          150.3          82.33         -43.87          16.89          136.5
     2.101              -48.84           32.6          38.51          48.17         -2.797          16.59          150.9          80.86         -45.45          18.77          134.1
     2.149              -48.12          32.84          38.91          48.56         -3.052           16.4          151.7          78.98         -47.48          21.19          131.0
     2.196               -47.2          33.15          39.43          49.06         -3.377          16.16          152.7          76.58         -50.07          24.27          127.1
     2.244              -46.05          33.54          40.07          49.69         -3.786          15.85          154.0          73.56         -53.32          28.15          122.2
     2.292              -44.64          34.02          40.86          50.46         -4.285          15.48          155.6          69.88         -57.29          32.88          116.1
      2.34              -43.01          34.57          41.77          51.35         -4.863          15.04          157.4          65.61         -61.89          38.36          109.2
     2.387              -41.24          35.16          42.75          52.31         -5.488          14.57          159.4          60.99         -66.87          44.29          101.6
     2.435              -39.48          35.76          43.74          53.27         -6.114           14.1          161.3          56.37         -71.85          50.22          94.04
     2.483              -37.85          36.31          44.65          54.16         -6.692          13.67          163.1           52.1         -76.44           55.7          87.06
     2.531              -36.44          36.78          45.43          54.93         -7.191          13.29          164.7          48.42         -80.41          60.43          81.04
     2.578              -35.28          37.17          46.08          55.56           -7.6          12.99          166.0           45.4         -83.67          64.31           76.1
     2.626              -34.37          37.48          46.59          56.06         -7.925          12.74          167.0          42.99         -86.26          67.39          72.17
     2.674              -33.65          37.72          46.99          56.45          -8.18          12.55          167.8          41.11         -88.28          69.81          69.09
     2.722              -33.09          37.91           47.3          56.76         -8.378           12.4          168.4          39.65         -89.86          71.69          66.69
     2.769              -32.65          38.06          47.55           57.0         -8.533          12.29          168.9           38.5          -91.1          73.16          64.82
     2.817              -32.31          38.18          47.74          57.18         -8.655          12.19          169.3           37.6         -92.07          74.32          63.35
     2.865              -32.03          38.27          47.89          57.33         -8.752          12.12          169.6          36.89         -92.84          75.24          62.18
     2.913              -31.81          38.34          48.01          57.45          -8.83          12.06          169.8          36.31         -93.46          75.97          61.24
      2.96              -31.64           38.4          48.11          57.55         -8.893          12.02          170.0          35.85         -93.96          76.57          60.48
     3.008              -31.49          38.45          48.19          57.63         -8.944          11.98          170.2          35.47         -94.37          77.06          59.86
     3.056              -31.37          38.49          48.26          57.69         -8.987          11.95          170.3          35.15          -94.7          77.46          59.34
